<svg width="73" height="74" viewBox="0 0 73 74" fill="none" xmlns="http://www.w3.org/2000/svg">
<g clip-path="url(#clip0_563_58)">
<path d="M47.6344 45.0901C47.5137 45.0644 47.4016 45.0472 47.2809 45.03C47.2292 45.03 47.1688 45.0215 47.1085 45.0043L43.2546 44.3262L41.9355 40.9099L41.9527 40.8841C42.0993 40.6781 42.2372 40.4807 42.3924 40.2918L42.8321 39.7339C43.2805 39.1674 43.7374 38.5837 44.2202 38.0515C45.6945 36.412 45.6687 34.824 44.1426 33.3305C43.9357 33.1245 43.746 32.9099 43.5564 32.6867C43.4356 32.5494 43.3149 32.4034 43.1856 32.2661C41.6078 30.5236 40.5732 30.3777 38.573 31.5966C37.7884 32.0773 37.0125 32.5665 36.2107 33.073L35.4088 33.5708C33.8742 32.5665 32.0981 31.7597 29.8909 31.0558L29.8565 30.867C29.7875 30.5064 29.7185 30.1631 29.6582 29.8112C29.5806 29.3476 29.503 28.8841 29.4254 28.4292C29.3305 27.8798 29.2443 27.3219 29.1409 26.7725C28.8994 25.3906 27.9683 24.5236 26.5888 24.3948C25.5025 24.2918 24.4162 24.2918 23.3729 24.3948C21.9245 24.5408 20.9847 25.4506 20.8037 26.9013C20.7606 27.2532 21.0106 27.5794 21.3641 27.6223C21.7089 27.6652 22.0452 27.4163 22.0883 27.0644C22.1918 26.2146 22.6573 25.7597 23.5023 25.6824C24.4593 25.588 25.4594 25.588 26.4681 25.6824C27.2699 25.7597 27.7269 26.1888 27.8735 27.0043C27.9683 27.5536 28.0631 28.0944 28.1494 28.6438C28.227 29.1073 28.3045 29.5708 28.3821 30.0343C28.4425 30.3863 28.5115 30.7468 28.5891 31.1159L28.7011 31.6738C28.7443 31.9056 28.9167 32.0944 29.1495 32.1717C31.5722 32.9099 33.4431 33.7682 35.0295 34.867C35.245 35.0129 35.5209 35.0215 35.7451 34.8841L36.9004 34.1631C37.7022 33.6652 38.4782 33.176 39.2541 32.6953C40.7284 31.794 41.0561 31.8455 42.2286 33.133C42.3407 33.2618 42.4614 33.3906 42.5735 33.5279C42.789 33.7768 43.0046 34.0258 43.2373 34.2489C44.272 35.2618 44.2719 36.0601 43.2546 37.1931C42.7459 37.7597 42.2717 38.3605 41.8148 38.9442L41.3837 39.4936C41.2199 39.6996 41.0647 39.9227 40.9009 40.1459L40.6853 40.4464C40.556 40.6266 40.5301 40.8498 40.6077 41.0558L42.1769 45.133C42.2545 45.3476 42.4442 45.4936 42.6683 45.5365L46.8757 46.2747C46.9533 46.2918 47.0395 46.3004 47.1171 46.309C47.1861 46.309 47.2551 46.3262 47.3154 46.3433C48.1345 46.5494 48.5225 46.9957 48.5569 47.8112C48.6 48.6352 48.6 49.5193 48.5569 50.515C48.5225 51.4764 48.1259 51.9313 47.1344 52.1288C46.6429 52.2318 46.1515 52.3004 45.66 52.3777C45.3583 52.4206 45.0479 52.4721 44.7461 52.5236C44.2288 52.6094 43.7029 52.7039 43.2029 52.7983L42.7028 52.8927C42.4873 52.927 42.3062 53.073 42.22 53.279L41.6423 54.6609C41.5044 54.9871 41.6596 55.3648 41.9872 55.5021C42.0648 55.5365 42.151 55.5536 42.2372 55.5536C42.4873 55.5536 42.7287 55.4077 42.8321 55.1588L43.2805 54.0944L43.4443 54.0687C43.9443 53.9742 44.4616 53.8798 44.9703 53.794C45.2634 53.7425 45.5652 53.6996 45.8583 53.6567C46.3756 53.5794 46.8843 53.5021 47.4016 53.3991C48.9794 53.0815 49.8071 52.1288 49.8588 50.5665C49.8933 49.5365 49.8933 48.618 49.8588 47.7511C49.7985 46.3777 49.0053 45.4335 47.6344 45.0987V45.0901Z" fill="white"/>
<path d="M42.6171 60.3863C42.3412 60.0086 42.0653 59.6223 41.7894 59.2361C41.6342 59.0215 41.5049 58.7811 41.3928 58.5837L41.9532 57.2446C42.0911 56.9185 41.9359 56.5408 41.6083 56.4034C41.2807 56.2661 40.9013 56.4206 40.7634 56.7468L40.0823 58.3777C40.0047 58.5665 40.0219 58.7811 40.1254 58.9528L40.272 59.2017C40.4013 59.4335 40.5565 59.7082 40.7375 59.9657C41.0134 60.3605 41.2979 60.7468 41.5738 61.133C41.9877 61.7082 42.4101 62.2747 42.7981 62.867C43.3413 63.6824 43.2982 64.309 42.6343 65.0215C42.0135 65.691 41.4273 66.2747 40.8324 66.8154C40.065 67.5021 39.5822 67.5365 38.6769 66.9528C38.1683 66.618 37.6682 66.2661 37.1768 65.9056C36.8836 65.691 36.5905 65.485 36.2974 65.279C35.9439 65.03 35.5904 64.7897 35.2455 64.5579L34.8575 64.2918C34.6765 64.1717 34.4437 64.1459 34.2454 64.2318L29.1327 66.3262C28.9689 66.3948 28.831 66.5322 28.7706 66.6953C28.5033 67.4077 28.3999 68.1803 28.305 68.9185C28.2447 69.3906 28.1757 69.8712 28.0722 70.3262C28.0291 70.5236 27.9946 70.721 27.9602 70.9099C27.9084 71.1931 27.8653 71.4592 27.7877 71.6996C27.5894 72.3176 27.1928 72.6352 26.5893 72.6609C25.4771 72.7039 24.477 72.7124 23.5458 72.6695C22.6837 72.6352 22.3129 72.309 22.1233 71.4421C21.9595 70.6781 21.8301 69.9056 21.7008 69.1416C21.6318 68.7468 21.5715 68.3519 21.5025 67.9571C21.4594 67.7082 21.4077 67.4506 21.3473 67.1845L21.2611 66.7639C21.218 66.5494 21.0628 66.3691 20.8559 66.2918C20.5541 66.1803 20.2437 66.0687 19.9333 65.9571C19.2522 65.7167 18.5453 65.4592 17.8814 65.1674C17.2261 64.8755 16.5795 64.5322 15.8984 64.1717C15.588 64.0086 15.2776 63.8369 14.95 63.6738C14.7431 63.5708 14.5017 63.5794 14.312 63.6996L11.0961 65.691C10.8116 65.8712 10.5357 66.0515 10.2339 66.206C9.44073 66.6266 8.94067 66.5579 8.32853 65.9485C7.66466 65.2876 7.02665 64.5751 6.43176 63.8283C5.82824 63.0644 6.09551 62.3605 6.42313 61.9056C6.75938 61.4421 7.12149 61.0043 7.49223 60.5579C7.67328 60.3433 7.85434 60.1202 8.02677 59.897L9.35452 58.2403C9.49246 58.0601 9.53557 57.8197 9.44935 57.6137L7.85434 53.4163C7.79398 53.2532 7.66466 53.1159 7.49223 53.0472C6.68178 52.721 5.81961 52.6009 4.99193 52.4893C4.47463 52.4206 3.99181 52.3519 3.509 52.2403C3.33656 52.1974 3.15551 52.1717 2.97445 52.1459C2.79339 52.1202 2.61234 52.0944 2.43128 52.0429C1.73292 51.8283 1.37943 51.4077 1.34495 50.7468C1.29322 49.7253 1.2846 48.7124 1.34495 47.7339C1.38806 46.9614 1.81052 46.5064 2.6382 46.3433C3.48313 46.1803 4.33668 46.0343 5.19023 45.897C5.62131 45.8283 6.0524 45.7597 6.47486 45.6824C6.66454 45.6481 6.8456 45.6137 7.03527 45.5708L7.27668 45.5193C7.49223 45.4764 7.66466 45.3305 7.75088 45.133L9.88044 40.0343C9.91493 39.9399 9.93217 39.8455 9.93217 39.7511C9.9063 39.2532 9.59592 38.8841 9.32003 38.5579C9.22519 38.4464 9.13035 38.3348 9.05275 38.2146C8.7941 37.8283 8.51821 37.4506 8.24231 37.0815C7.91469 36.6266 7.57844 36.1717 7.27668 35.7082C6.69903 34.8326 6.73352 34.3262 7.43187 33.5708C7.99228 32.9528 8.60443 32.3519 9.23381 31.7768C9.9839 31.0901 10.5271 31.0558 11.3892 31.6223C11.9669 32 12.5187 32.3948 13.0705 32.7983C13.3895 33.03 13.7085 33.2618 14.0275 33.485C14.2775 33.6567 14.5362 33.8283 14.7776 33.9828L15.0707 34.1803C15.2518 34.3004 15.4759 34.3176 15.6742 34.2403L20.8214 32.0944C21.149 31.9571 21.3042 31.5794 21.1663 31.2532C21.0283 30.927 20.649 30.7725 20.3213 30.9099L15.4932 32.9185H15.4759C15.2431 32.7639 15.0017 32.6009 14.7689 32.4378C14.4499 32.2146 14.1396 31.9914 13.8206 31.7597C13.2515 31.3476 12.6739 30.9356 12.0876 30.5494C10.7254 29.6567 9.53557 29.7511 8.34577 30.8326C7.6819 31.4335 7.05252 32.0687 6.46624 32.7124C5.37128 33.9142 5.28507 35.0558 6.19035 36.4292C6.50935 36.9099 6.85422 37.382 7.19047 37.8541C7.45774 38.2232 7.72501 38.5837 7.97504 38.9614C8.0785 39.1159 8.19921 39.2618 8.31991 39.4077C8.40613 39.5107 8.53545 39.6652 8.5958 39.7768L6.68178 44.3605C6.53522 44.3863 6.39727 44.4206 6.2507 44.4464C5.82824 44.5236 5.39715 44.5923 4.97469 44.6609C4.11252 44.7983 3.24172 44.9442 2.37955 45.1159C0.974214 45.3906 0.120665 46.3348 0.0430694 47.6996C-0.0172826 48.721 -0.00866087 49.7854 0.0430694 50.8498C0.112043 52.0429 0.836267 52.9356 2.04331 53.3047C2.27609 53.3734 2.52612 53.4163 2.77615 53.4506C2.92272 53.4678 3.06067 53.4936 3.20724 53.5279C3.74178 53.6567 4.28495 53.7339 4.81087 53.8026C5.50061 53.897 6.14724 53.9828 6.74214 54.1888L8.10437 57.7768L7.00941 59.1502C6.83698 59.3648 6.65592 59.5794 6.48349 59.794C6.10413 60.2575 5.71615 60.721 5.36266 61.2017C4.55222 62.3262 4.56947 63.6223 5.40577 64.6781C6.03516 65.4678 6.70765 66.2146 7.40601 66.9099C8.42337 67.9142 9.54419 68.0773 10.8288 67.3906C11.1565 67.2189 11.4668 67.0215 11.7772 66.824L14.6741 65.03C14.881 65.1416 15.0793 65.2446 15.2862 65.3562C15.9932 65.7339 16.6571 66.0858 17.3555 66.3948C18.0624 66.7039 18.7953 66.97 19.5023 67.2189C19.6919 67.2875 19.8816 67.3562 20.0713 67.4249L20.0885 67.5021C20.1403 67.7597 20.192 68 20.2351 68.2403C20.3041 68.6266 20.3731 69.0215 20.4334 69.4163C20.5627 70.206 20.6921 70.9957 20.8645 71.7768C21.1663 73.2017 22.0543 73.9571 23.4941 74.0172C23.9338 74.0343 24.3908 74.0429 24.865 74.0429C25.4254 74.0429 26.0203 74.0257 26.6497 74C27.7963 73.9485 28.6671 73.279 29.0292 72.1459C29.1327 71.8197 29.1844 71.5021 29.2448 71.1845C29.2793 71.0129 29.3051 70.8326 29.3483 70.6609C29.469 70.1459 29.5293 69.6309 29.5983 69.133C29.6759 68.5322 29.7535 67.9657 29.9087 67.4506L34.4264 65.5966L34.5299 65.6652C34.8661 65.897 35.2196 66.1288 35.5645 66.3691C35.8576 66.5751 36.1422 66.7725 36.4267 66.9785C36.9354 67.3476 37.4527 67.7167 37.9786 68.0601C39.3753 68.97 40.4961 68.9013 41.7118 67.8026C42.3326 67.2446 42.9533 66.6266 43.5999 65.9227C44.669 64.764 44.7725 63.5021 43.8845 62.1888C43.4792 61.588 43.0568 60.9957 42.6257 60.412L42.6171 60.3863Z" fill="white"/>
<path d="M29.736 37.8541C29.3221 37.6824 28.8997 37.5279 28.4772 37.3991C27.3391 37.0558 26.1924 36.8841 25.0716 36.8841H25.063C21.8212 36.8841 18.6053 38.2489 16.2516 40.618C13.9496 42.9356 12.6995 45.9571 12.734 49.1159C12.6391 52.3949 14.0617 55.7511 16.5361 58.103C17.6569 59.1674 18.9502 59.9914 20.3814 60.5579C20.459 60.5923 20.5366 60.6009 20.6228 60.6009C20.8815 60.6009 21.1229 60.4464 21.2263 60.1974C21.3557 59.8712 21.1918 59.4936 20.8642 59.3648C19.5882 58.8584 18.4329 58.1202 17.4328 57.1674C15.217 55.0644 13.941 52.0601 14.0272 49.1245C13.9927 46.2918 15.1135 43.588 17.1655 41.5193C19.2864 39.3906 22.1661 38.1631 25.063 38.1631C26.0545 38.1631 27.0805 38.3176 28.0978 38.6266C28.4772 38.7382 28.8652 38.8755 29.2359 39.03C29.5635 39.1674 29.9429 39.0129 30.0808 38.6867C30.2188 38.3605 30.0636 37.9828 29.736 37.8455V37.8541Z" fill="white"/>
<path d="M25.0719 60.1545C25.0719 60.1545 25.0201 60.1545 24.9943 60.1545C24.6408 60.1545 24.3477 60.4378 24.3477 60.7983C24.3477 61.1502 24.6322 61.4421 24.9943 61.4421H25.0719C28.374 61.4421 31.4606 60.1888 33.7626 57.9056C36.0818 55.6052 37.3578 52.515 37.3492 49.2103C37.3492 46.7124 36.6853 44.4549 35.4007 42.4979C35.2024 42.1974 34.8058 42.1202 34.504 42.309C34.2023 42.5064 34.1247 42.9013 34.3144 43.2017C35.461 44.9528 36.0473 46.97 36.0473 49.2103C36.0473 52.1717 34.9179 54.9356 32.84 56.9957C30.7795 59.0386 28.0205 60.1545 25.0546 60.1545H25.0719Z" fill="white"/>
<path d="M25.0544 41.8541C22.4852 41.8541 19.9849 43.3047 18.6744 45.5537C18.4933 45.8627 18.5968 46.2575 18.9072 46.4378C19.2175 46.618 19.6141 46.515 19.7952 46.206C20.8815 44.3519 22.9421 43.1502 25.063 43.1502C27.4857 43.1502 31.081 45.073 31.0896 49.1931C31.0896 50.8155 30.4689 52.3348 29.3308 53.4592C28.1927 54.5837 26.6667 55.2017 25.0286 55.1931C22.8818 55.176 21.4937 54.206 20.7005 53.3906C19.5969 52.2575 18.9675 50.6781 19.0106 49.176C19.0192 48.824 18.7433 48.5236 18.3812 48.515C18.0191 48.515 17.726 48.7897 17.7174 49.1416C17.6656 51.0129 18.4157 52.8841 19.7693 54.2919C21.1316 55.691 22.9938 56.4721 25.0199 56.4893H25.0717C27.0374 56.4893 28.8738 55.7425 30.2447 54.3863C31.6242 53.0215 32.3829 51.176 32.3829 49.2103C32.3743 44.6867 28.5807 41.8798 25.0717 41.8798L25.0544 41.8541Z" fill="white"/>
<path d="M31.926 39.0987C31.607 38.9442 31.2191 39.0815 31.0639 39.4077C30.9087 39.7253 31.0466 40.1116 31.3656 40.2661C31.3743 40.2661 32.2882 40.7124 33.0038 41.5193C33.1331 41.6652 33.3141 41.7339 33.4866 41.7339C33.6418 41.7339 33.7883 41.6824 33.9177 41.5708C34.1849 41.3391 34.2108 40.927 33.978 40.6609C33.0814 39.6481 31.9692 39.1159 31.926 39.0901V39.0987Z" fill="white"/>
<path d="M32.2539 20.103C32.4695 20.1545 32.685 20.1803 32.9092 20.1974C33.0213 20.206 33.1247 20.2146 33.2368 20.2318C33.5731 20.2833 33.9179 20.3004 34.2542 20.3262C34.5904 20.3433 34.9181 20.3691 35.2112 20.4206L36.5131 23.0129C36.3924 23.2275 36.263 23.4506 36.1251 23.6738C36.013 23.8627 35.8923 24.0515 35.7716 24.2489C35.5561 24.6009 35.3405 24.9442 35.1422 25.3047C34.5646 26.3348 34.6853 27.1588 35.5216 27.9571C35.9182 28.3348 36.3406 28.7039 36.8321 29.0901C37.2718 29.4421 37.7287 29.6137 38.1857 29.6137C38.6426 29.6137 39.091 29.4421 39.5393 29.0987C39.91 28.8155 40.2721 28.5064 40.6342 28.206C40.867 28.0086 41.0998 27.8197 41.3326 27.6309C41.4274 27.5536 41.5309 27.485 41.6257 27.4249L42.4103 27.6824C42.7466 27.8026 43.1173 27.6137 43.2294 27.279C43.3415 26.9442 43.1604 26.5751 42.8242 26.4635L41.7378 26.103C41.5395 26.0343 41.3326 26.0687 41.1602 26.1888L41.0136 26.2833C40.867 26.3777 40.686 26.4979 40.5222 26.6352C40.2808 26.8326 40.048 27.03 39.8066 27.2275C39.4617 27.5193 39.1082 27.8112 38.7547 28.0858C38.3323 28.412 38.0564 28.4034 37.6425 28.0858C37.1856 27.7253 36.7803 27.382 36.4182 27.03C36.0389 26.6695 35.9699 26.4807 36.2717 25.9399C36.4613 25.5966 36.6683 25.2704 36.8752 24.9356C36.9959 24.7382 37.1166 24.5408 37.2373 24.3433C37.3752 24.1116 37.5132 23.8798 37.6425 23.6481L37.8063 23.3734C37.9184 23.1845 37.927 22.9528 37.8236 22.7639L36.2372 19.5966C36.1596 19.4335 36.013 19.3133 35.8406 19.2618C35.3405 19.1159 34.8318 19.0901 34.3318 19.0644C34.0386 19.0472 33.7369 19.03 33.4351 18.9871C33.3058 18.97 33.1678 18.9528 33.0385 18.9442C32.8747 18.927 32.7109 18.9099 32.5557 18.8755C32.1591 18.7811 32.0815 18.5579 32.0556 18.3519C31.9781 17.6566 31.9263 17.0215 31.9091 16.4292C31.9005 15.9828 32.0212 15.8197 32.4609 15.691C32.9437 15.5536 33.4351 15.4335 33.9179 15.3219C34.168 15.2618 34.418 15.2017 34.668 15.1416C34.8318 15.0987 34.9957 15.0558 35.1681 15.0043L35.4267 14.927C35.6423 14.867 35.8147 14.7039 35.8751 14.4893C35.9354 14.2918 35.9871 14.0858 36.0475 13.8798C36.1768 13.4335 36.2975 12.9785 36.4527 12.5408C36.6079 12.103 36.7976 11.6824 36.9959 11.2361C37.0907 11.03 37.1769 10.824 37.2718 10.6094C37.358 10.4034 37.3321 10.1631 37.2028 9.97425L35.7716 8.00858C35.6423 7.83691 35.5216 7.67382 35.4095 7.49356C35.1595 7.09013 35.1681 6.87553 35.4698 6.53219C35.8578 6.08583 36.2803 5.64807 36.7286 5.23605C37.0218 4.96995 37.3235 4.9442 37.6856 5.16738C37.996 5.35622 38.2978 5.57081 38.5909 5.77682L40.1773 6.85837C40.367 6.98712 40.6084 7.00429 40.8153 6.90987L43.4449 5.69957C43.6087 5.62232 43.7294 5.48498 43.7898 5.3133C43.9708 4.75536 44.014 4.18026 44.0484 3.6309C44.0657 3.32189 44.0916 3.00429 44.1347 2.69528C44.1519 2.57511 44.1605 2.44635 44.1778 2.32618C44.1778 2.22317 44.1864 2.11159 44.2123 2.01717C44.3157 1.56223 44.5657 1.46781 44.7985 1.44206C45.4452 1.35622 46.0918 1.3133 46.7126 1.30472C46.9971 1.28755 47.2988 1.36481 47.4454 1.89699C47.592 2.43777 47.7213 2.97854 47.8506 3.51931L48.0403 4.30901C48.0748 4.42918 48.1093 4.54935 48.1438 4.67811L48.1869 4.82403C48.2472 5.03004 48.4024 5.19313 48.6093 5.2618L51.9977 6.38626C52.0925 6.4206 52.1873 6.42918 52.2822 6.41201C52.6702 6.36051 52.9374 6.103 53.153 5.90558C53.2133 5.84549 53.2737 5.78541 53.3426 5.7339C53.5754 5.54506 53.8082 5.35622 54.041 5.1588C54.3169 4.92704 54.5928 4.69528 54.8773 4.48068C55.3343 4.12875 55.5412 4.12875 55.9809 4.48068C56.4034 4.80686 56.8172 5.16738 57.2052 5.53648C57.6018 5.90558 57.6363 6.14592 57.3604 6.62661C57.1448 7.01287 56.912 7.38197 56.6792 7.75965C56.5499 7.97425 56.412 8.18884 56.2826 8.40343C56.1792 8.57511 56.0843 8.7382 55.9981 8.90129L55.886 9.10729C55.7826 9.29614 55.774 9.51931 55.8688 9.71674L57.4897 12.9013C57.6535 13.2189 58.0415 13.3476 58.3605 13.1845C58.6795 13.0215 58.8088 12.6352 58.645 12.3176L57.1793 9.43347C57.2483 9.3133 57.3173 9.18455 57.3948 9.06438C57.5242 8.85837 57.6535 8.64377 57.7828 8.43777C58.0242 8.0515 58.2656 7.65665 58.4898 7.2618C59.0416 6.26609 58.9123 5.37339 58.0932 4.60086C57.6707 4.20601 57.231 3.82832 56.7827 3.46781C55.8774 2.75536 55.0239 2.75536 54.0927 3.46781C53.791 3.69957 53.5065 3.93991 53.2133 4.18026C52.9892 4.3691 52.7736 4.54935 52.5408 4.72961C52.4374 4.80687 52.3425 4.8927 52.2563 4.98712C52.2218 5.02146 52.1787 5.06438 52.1529 5.09013L49.3422 4.1545C49.3249 4.103 49.3163 4.06008 49.3077 4.00858L49.118 3.22747C48.9801 2.66953 48.8507 2.11159 48.6955 1.56223C48.4283 0.583689 47.6782 0.0257492 46.6953 0.0257492C46.0228 0.0343329 45.3331 0.085835 44.6433 0.180256C43.7725 0.291844 43.1604 0.858367 42.9535 1.75107C42.919 1.91416 42.9018 2.08584 42.8845 2.25751C42.8845 2.34335 42.8759 2.42918 42.8586 2.51502C42.7983 2.86695 42.7811 3.21888 42.7552 3.57081C42.7293 3.96566 42.7035 4.33476 42.6259 4.67811L40.5998 5.61373L39.341 4.74678C39.022 4.5236 38.703 4.29184 38.3667 4.08583C37.5132 3.56223 36.5734 3.63948 35.8492 4.30043C35.3664 4.74678 34.9008 5.21888 34.487 5.69957C33.8145 6.4721 33.7627 7.30472 34.3145 8.18026C34.4439 8.38626 34.5904 8.58369 34.737 8.77253L35.944 10.4292C35.9009 10.5236 35.8578 10.618 35.8233 10.7124C35.6164 11.1845 35.4095 11.6395 35.2457 12.103C35.0732 12.5665 34.9439 13.0472 34.806 13.5279L34.737 13.7768C34.6077 13.8112 34.4783 13.8455 34.349 13.8798C34.099 13.9399 33.8576 14 33.6076 14.0601C33.0989 14.1803 32.5902 14.3004 32.0901 14.4464C31.09 14.7382 30.5727 15.4335 30.5986 16.4635C30.6158 17.0987 30.6676 17.7597 30.7538 18.4979C30.8486 19.3305 31.3918 19.9227 32.2367 20.1288L32.2539 20.103Z" fill="white"/>
<path d="M58.2826 17.5794C58.0498 17.6395 57.8688 17.8283 57.817 18.0601C57.4635 19.6223 57.0066 20.8326 56.3858 21.8798C56.2565 22.103 56.2651 22.3777 56.4203 22.5923L56.9549 23.3133C57.3084 23.794 57.6532 24.2575 57.9981 24.7296C58.5844 25.5365 58.5757 25.6309 57.8774 26.3605C57.7998 26.4378 57.7222 26.515 57.6446 26.5923C57.4894 26.7468 57.3342 26.9013 57.1963 27.0644C56.679 27.6738 56.291 27.6996 55.6185 27.176C55.2305 26.8755 54.8167 26.6009 54.4115 26.3262L54.0407 26.0773C53.8942 25.9828 53.7476 25.8884 53.5924 25.794L53.3855 25.6738C53.2044 25.5622 52.9716 25.5451 52.7733 25.6395L50.2213 26.8326C50.0144 26.927 49.8764 27.1245 49.8506 27.3476L49.5661 30.0773C49.5661 30.1373 49.5661 30.1888 49.5574 30.2489C49.5574 30.2833 49.5574 30.3176 49.5574 30.3519C49.4798 30.7897 49.2902 30.9785 48.8677 31.0215C48.3418 31.0815 47.7814 31.1245 47.1434 31.1502C46.6261 31.1674 46.4105 31.0043 46.2639 30.4807C46.1777 30.1803 46.1088 29.8712 46.0398 29.5708C45.9967 29.3734 45.9536 29.176 45.9018 28.9785C45.8242 28.6524 45.738 28.3348 45.6518 28.0172L45.5656 27.6824C45.4794 27.3391 45.1259 27.133 44.781 27.2189C44.4361 27.3047 44.2292 27.6567 44.3154 28L44.4017 28.3433C44.4793 28.6524 44.5655 28.97 44.6431 29.2876C44.6862 29.4764 44.7293 29.6652 44.7724 29.8541C44.85 30.1803 44.919 30.5064 45.0138 30.824C45.3069 31.8798 46.0225 32.4292 47.0744 32.4292C47.1089 32.4292 47.152 32.4292 47.1865 32.4292C47.859 32.4034 48.4625 32.3605 49.0143 32.2918C50.0058 32.1717 50.6524 31.5622 50.8248 30.5494C50.8421 30.4635 50.8421 30.3777 50.8507 30.2918L51.1007 27.8369L53.0147 26.9442C53.1182 27.0043 53.2217 27.073 53.3165 27.133L53.6959 27.3906C54.0838 27.6481 54.4718 27.9056 54.8339 28.1888C56.0582 29.133 57.2135 29.03 58.1878 27.8884C58.2998 27.7511 58.4378 27.6223 58.5585 27.5021C58.6447 27.4163 58.7309 27.3305 58.8172 27.2446C59.938 26.0773 59.9983 25.279 59.0499 23.9742C58.7051 23.5021 58.3602 23.03 58.0067 22.5494L57.7222 22.1631C58.2567 21.176 58.6706 20.0687 59.0068 18.7296C59.231 18.6695 59.4465 18.6094 59.6621 18.5579L60.5415 18.3433C60.895 18.2575 61.2485 18.1717 61.602 18.0858C62.5762 17.8369 63.1711 17.1073 63.1884 16.1288C63.2056 15.4163 63.1539 14.7039 63.0332 14.0343C62.8521 13.0129 62.1279 12.3777 61.0847 12.3176C60.7053 12.3004 60.4208 12.5665 60.4035 12.927C60.3863 13.279 60.6536 13.588 61.0157 13.6051C61.464 13.6309 61.6882 13.8197 61.7572 14.2575C61.8606 14.8498 61.9037 15.4764 61.8951 16.103C61.8865 16.515 61.6968 16.7382 61.283 16.8412C60.9381 16.927 60.5846 17.0129 60.2397 17.0987L59.3517 17.3133C59.1275 17.3734 58.9034 17.4335 58.6706 17.4936L58.3085 17.5966L58.2826 17.5794Z" fill="white"/>
<path d="M46.3931 9.2618C46.7465 9.24463 47.0224 8.9442 47.0138 8.59227C46.9966 8.24034 46.6948 7.95708 46.3413 7.97424C44.2031 8.06866 42.1253 9.06437 40.6424 10.721C39.1508 12.3777 38.418 14.5494 38.5732 16.8326C38.7197 19.0815 39.7285 21.1159 41.4097 22.5665C42.9271 23.8712 44.8325 24.5751 46.8414 24.5751C47.0569 24.5751 47.2725 24.5751 47.488 24.5494C52.6524 24.1631 55.5321 19.6395 55.2475 15.6738C55.0406 12.7725 53.1783 10.0515 50.497 8.75536C50.178 8.60085 49.79 8.72961 49.6348 9.04721C49.4796 9.3648 49.6089 9.75107 49.9279 9.90557C52.1955 11.0043 53.7732 13.3047 53.9543 15.7597C54.1612 18.5751 52.2127 22.9013 47.3845 23.2618C45.4878 23.4077 43.66 22.8069 42.246 21.588C40.832 20.3605 39.9785 18.6438 39.8492 16.7382C39.6854 14.2489 40.7027 12.5494 41.5908 11.5708C42.8323 10.1974 44.617 9.33047 46.3844 9.25321L46.3931 9.2618Z" fill="white"/>
<path d="M61.2745 39.7425C60.5244 39.7425 59.9209 40.3519 59.9209 41.0901C59.9209 41.8283 60.533 42.4378 61.2745 42.4378C62.016 42.4378 62.6281 41.8283 62.6281 41.0901C62.6281 40.3519 62.0246 39.7425 61.2745 39.7425ZM61.2142 41.0901C61.2142 41.0901 61.24 41.03 61.2745 41.03C61.309 41.03 61.3349 41.0558 61.3349 41.0901C61.3349 41.1588 61.2142 41.1588 61.2142 41.0901Z" fill="white"/>
<path d="M72.3531 40.4464H69.0337C68.8958 38.7897 68.2405 37.279 67.2145 36.0773L69.5596 33.7425C69.8097 33.4936 69.8097 33.0815 69.5596 32.8326C69.3096 32.5837 68.8958 32.5837 68.6457 32.8326L66.3006 35.1674C65.0936 34.1545 63.5762 33.4936 61.9122 33.3562V30.0515C61.9122 29.6996 61.6191 29.4077 61.2656 29.4077C60.9121 29.4077 60.6189 29.6996 60.6189 30.0515V33.3562C58.9549 33.4936 57.4375 34.1459 56.2391 35.1674L53.894 32.8326C53.644 32.5837 53.2301 32.5837 52.9801 32.8326C52.7301 33.0815 52.7301 33.4936 52.9801 33.7425L55.3252 36.0773C54.3078 37.279 53.644 38.7897 53.506 40.4464H50.1867C49.8332 40.4464 49.54 40.7382 49.54 41.0901C49.54 41.4421 49.8332 41.7339 50.1867 41.7339H53.506C53.644 43.3906 54.2992 44.9013 55.3252 46.103L52.9801 48.4378C52.7301 48.6867 52.7301 49.0987 52.9801 49.3476C53.1094 49.4764 53.2732 49.5365 53.4371 49.5365C53.6009 49.5365 53.7647 49.4764 53.894 49.3476L56.2391 47.0129C57.4461 48.0258 58.9636 48.6867 60.6189 48.824V52.1288C60.6189 52.4807 60.9121 52.7725 61.2656 52.7725C61.6191 52.7725 61.9122 52.4807 61.9122 52.1288V48.824C63.5762 48.6867 65.0936 48.0343 66.3006 47.0129L68.6457 49.3476C68.7751 49.4764 68.9389 49.5365 69.1027 49.5365C69.2665 49.5365 69.4303 49.4764 69.5596 49.3476C69.8097 49.0987 69.8097 48.6867 69.5596 48.4378L67.2145 46.103C68.2319 44.9013 68.8958 43.3906 69.0337 41.7339H72.3531C72.7066 41.7339 72.9997 41.4421 72.9997 41.0901C72.9997 40.7382 72.7066 40.4464 72.3531 40.4464ZM61.2742 47.5622C57.6876 47.5622 54.7734 44.6609 54.7734 41.0901C54.7734 37.5193 57.6876 34.618 61.2742 34.618C64.8608 34.618 67.775 37.5193 67.775 41.0901C67.775 44.6609 64.8608 47.5622 61.2742 47.5622Z" fill="white"/>
</g>
<defs>
<clipPath id="clip0_563_58">
<rect width="73" height="74" fill="white"/>
</clipPath>
</defs>
</svg>
