<svg width="92" height="57" viewBox="0 0 92 57" fill="none" xmlns="http://www.w3.org/2000/svg">
<g clip-path="url(#clip0_563_72)">
<path d="M35.95 37.74C36.03 36.81 35.74 35.9 35.14 35.19L34.56 34.5C33.32 33.03 31.1 32.84 29.63 34.08L24.66 38.27C23.95 38.87 23.51 39.72 23.43 40.65C23.35 41.58 23.64 42.49 24.24 43.2L24.82 43.89C25.51 44.71 26.5 45.13 27.5 45.13C28.3 45.13 29.1 44.86 29.75 44.31L34.72 40.12C35.43 39.52 35.87 38.67 35.95 37.74V37.74ZM33.76 38.97L28.79 43.16C27.95 43.87 26.68 43.76 25.97 42.92L25.39 42.23C24.68 41.39 24.79 40.12 25.63 39.41L30.6 35.22C30.96 34.91 31.41 34.75 31.88 34.75C31.94 34.75 32 34.75 32.05 34.75C32.58 34.8 33.07 35.04 33.41 35.45L33.99 36.14C34.33 36.55 34.5 37.06 34.45 37.6C34.4 38.13 34.16 38.62 33.75 38.96L33.76 38.97Z" fill="white"/>
<path d="M42.66 43.3C42.74 42.37 42.45 41.46 41.85 40.75L41.27 40.06C40.67 39.35 39.82 38.91 38.89 38.83C37.95 38.75 37.05 39.04 36.34 39.64L31.37 43.83C30.66 44.43 30.22 45.28 30.14 46.21C30.06 47.14 30.35 48.05 30.95 48.76L31.53 49.45C32.13 50.16 32.98 50.6 33.91 50.68C34.01 50.68 34.11 50.69 34.21 50.69C35.04 50.69 35.82 50.4 36.46 49.87L41.43 45.68C42.14 45.08 42.58 44.23 42.66 43.3V43.3ZM40.46 44.53L35.49 48.72C35.08 49.06 34.57 49.23 34.03 49.18C33.5 49.13 33.01 48.89 32.67 48.48L32.09 47.79C31.38 46.95 31.49 45.68 32.33 44.97L37.3 40.78C37.66 40.47 38.11 40.31 38.59 40.31C38.65 40.31 38.71 40.31 38.76 40.31C39.29 40.36 39.78 40.6 40.12 41.01L40.7 41.7C41.04 42.11 41.21 42.62 41.16 43.16C41.12 43.69 40.87 44.18 40.46 44.52V44.53Z" fill="white"/>
<path d="M91.2696 30.42L90.7196 26.55C90.6596 26.14 90.2796 25.85 89.8696 25.91C89.4596 25.97 89.1796 26.35 89.2296 26.76L89.7796 30.63C89.8596 31.16 89.7196 31.69 89.3996 32.12C89.0796 32.55 88.6096 32.83 88.0796 32.91L80.1996 34.04C79.6696 34.12 79.1396 33.98 78.7096 33.66C78.2796 33.34 77.9996 32.87 77.9196 32.34L77.8896 32.15L73.9896 4.94C73.8296 3.84 74.5996 2.82 75.6996 2.66L83.5796 1.53C84.6796 1.37 85.6996 2.14 85.8596 3.24L88.7696 23.09C88.8296 23.5 89.2196 23.78 89.6196 23.72C90.0296 23.66 90.3096 23.28 90.2496 22.87L87.3396 3.02C87.0696 1.1 85.2896 -0.239997 83.3596 0.0400031L75.4796 1.17C73.5596 1.44 72.2296 3.23 72.4996 5.15L72.6396 6.12C70.7296 6.25 65.8396 6.51 63.1696 6.06C61.3796 5.76 59.2496 4.96 57.1996 4.18C55.3796 3.49 53.4996 2.78 51.8296 2.41C48.5996 1.7 45.8096 2.37 43.5496 4.41C43.2396 4.69 43.2196 5.16 43.4896 5.47C43.7696 5.78 44.2396 5.8 44.5496 5.53C46.4596 3.81 48.7296 3.27 51.4996 3.88C53.0596 4.22 54.8896 4.92 56.6696 5.59C58.7896 6.39 60.9896 7.23 62.9196 7.55C64.1396 7.75 65.7596 7.82 67.3596 7.82C69.5796 7.82 71.7596 7.69 72.8496 7.62L76.2896 31.61L74.2496 31.87C74.0296 31.51 73.7696 31.18 73.4496 30.88L71.2196 28.98C70.9196 28.72 70.5996 28.45 70.2696 28.17C69.8196 27.78 69.3396 27.37 68.8196 26.93C67.2296 25.59 65.3696 23.68 63.3596 21.62C61.8296 20.05 60.2496 18.43 58.7396 17.02C58.1796 16.5 57.6096 15.87 57.0096 15.21C55.3896 13.44 53.7196 11.6 52.0796 11.6C51.2196 11.6 50.4296 12.11 49.6696 13.17C46.7796 17.17 42.1096 18.99 38.9896 18.99C38.2996 18.99 37.6796 18.9 37.1396 18.73C35.7296 18.27 34.8496 17.55 34.5696 16.64C34.3596 15.93 34.5796 15.29 34.7796 15.03C34.9496 14.82 35.9096 13.82 37.0096 12.67C38.1696 11.46 39.6196 9.95 40.6696 8.81C41.1196 8.32 41.5996 7.84 42.0896 7.38C42.3296 7.16 42.3896 6.8 42.2496 6.51C42.1096 6.22 41.7996 6.05 41.4696 6.09C38.2296 6.55 35.0496 7.51 32.9596 8.65C29.6996 10.43 25.3496 10.6 23.4096 10.57L23.9496 9.12C24.2796 8.24 24.2396 7.29 23.8496 6.43C23.4596 5.57 22.7596 4.92 21.8896 4.6L14.4296 1.79C13.5496 1.46 12.5996 1.5 11.7396 1.89C10.8796 2.28 10.2296 2.98 9.90962 3.85L8.90962 6.54C8.75962 6.93 8.95962 7.36 9.34962 7.5C9.73962 7.65 10.1696 7.45 10.3096 7.06L11.3196 4.37C11.5096 3.87 11.8796 3.47 12.3696 3.25C12.8596 3.03 13.4096 3 13.9096 3.19L21.3696 5.98C21.8696 6.17 22.2696 6.54 22.4896 7.03C22.7096 7.52 22.7296 8.07 22.5496 8.57L12.8596 34.51C12.6696 35.01 12.2996 35.41 11.8096 35.63C11.3196 35.85 10.7696 35.87 10.2696 35.69L2.80962 32.91C2.30962 32.72 1.90962 32.35 1.68962 31.86C1.46962 31.37 1.44962 30.82 1.62962 30.32L9.26962 9.85C9.41962 9.46 9.21962 9.03 8.82962 8.89C8.43962 8.75 8.00962 8.94 7.86962 9.33L0.21962 29.79C-0.11038 30.67 -0.0703799 31.62 0.31962 32.48C0.70962 33.34 1.40962 33.99 2.27962 34.31L9.73962 37.09C10.1396 37.24 10.5496 37.31 10.9596 37.31C11.4596 37.31 11.9496 37.2 12.4196 36.99C13.2796 36.6 13.9296 35.9 14.2496 35.03L14.8896 33.32L16.7896 33.79C16.4796 34.88 16.6896 36.1 17.4696 37.02L18.0496 37.71C18.7396 38.53 19.7296 38.95 20.7296 38.95C21.5296 38.95 22.3296 38.68 22.9796 38.13L27.9496 33.94C28.6596 33.34 29.0996 32.49 29.1796 31.56C29.2596 30.63 28.9696 29.72 28.3696 29.01L27.7896 28.32C26.5496 26.85 24.3296 26.66 22.8596 27.9L17.8896 32.09C17.7696 32.2 17.6596 32.32 17.5596 32.43L15.4196 31.9L22.8396 12.03C24.5396 12.09 29.7096 12.09 33.6696 9.93C35.1196 9.14 37.1596 8.44 39.3796 7.95C38.3496 9.06 37.0096 10.46 35.9196 11.6C34.3896 13.19 33.7996 13.82 33.5996 14.06C33.1396 14.64 32.7396 15.76 33.1196 17.03C33.4096 18.01 34.2696 19.34 36.6596 20.12C37.3496 20.34 38.1196 20.46 38.9696 20.46C42.4596 20.46 47.6696 18.45 50.8596 14.02C51.1696 13.59 51.6296 13.07 52.0596 13.07C53.0396 13.07 54.6796 14.87 55.8796 16.19C56.4996 16.87 57.0896 17.52 57.6996 18.08C59.1896 19.46 60.7496 21.07 62.2996 22.66C64.2996 24.71 66.1796 26.65 67.8296 28.04C68.3496 28.48 68.8196 28.88 69.2696 29.27C69.6096 29.56 69.9296 29.83 70.2296 30.09L72.4396 31.98C73.7096 33.12 73.8096 35.09 72.6596 36.36L72.2296 36.84C71.6796 37.45 70.9196 37.81 70.0896 37.85C69.2396 37.89 68.4696 37.61 67.8496 37.06L60.3496 30.4L60.2896 30.34L59.7896 30.9L59.3596 31.52L66.8696 38.18C66.9896 38.28 67.1196 38.37 67.2396 38.46C67.2396 38.46 67.2496 38.48 67.2596 38.49C67.6196 38.81 70.6796 41.7 68.7796 44.08L68.3496 44.56C67.1996 45.83 65.2396 45.93 63.9696 44.78L54.9196 36.61C54.6096 36.33 54.1396 36.36 53.8596 36.66C53.5796 36.97 53.6096 37.44 53.9096 37.72L61.8796 44.91C62.4696 45.44 62.7896 46.22 62.7996 47.1C62.7996 47.97 62.4796 48.83 61.8596 49.51C60.7096 50.78 58.7496 50.88 57.4796 49.73L56.0396 48.43L49.4396 42.47C49.1296 42.19 48.6596 42.22 48.3796 42.52C48.0996 42.83 48.1296 43.3 48.4296 43.58L55.0396 49.54C55.5296 49.98 55.8296 50.54 55.8896 51.11C55.9496 51.68 55.7596 52.22 55.3396 52.68L54.7896 53.29C53.9096 54.27 52.3896 54.35 51.4096 53.46L48.6396 50.96C49.1496 50.4 49.4696 49.69 49.5396 48.92C49.6196 47.99 49.3296 47.08 48.7296 46.37L48.1496 45.68C46.8996 44.21 44.6896 44.02 43.2196 45.26L38.2496 49.45C36.7696 50.69 36.5896 52.91 37.8296 54.38L38.4096 55.07C39.0096 55.78 39.8596 56.22 40.7896 56.3C40.8896 56.3 40.9896 56.31 41.0896 56.31C41.9196 56.31 42.6996 56.02 43.3396 55.49L47.5296 51.95C47.5296 51.95 47.5696 52.01 47.5896 52.03L50.3996 54.57C51.1396 55.24 52.0796 55.57 53.0096 55.57C54.0696 55.57 55.1296 55.14 55.8996 54.29L56.4496 53.68C57.0296 53.04 57.3296 52.26 57.3696 51.45C58.0496 51.82 58.7896 52.01 59.5396 52.01C60.8096 52.01 62.0896 51.48 63.0296 50.44C63.8396 49.54 64.3096 48.32 64.2996 47.08C64.2996 46.94 64.2696 46.82 64.2596 46.68C64.8196 46.91 65.4196 47.05 66.0396 47.05C66.1196 47.05 66.1996 47.05 66.2796 47.05C67.5096 46.99 68.6396 46.45 69.4596 45.54L69.9196 45.03C71.3996 43.17 71.0196 41.08 69.9396 39.34C70.0196 39.34 70.0996 39.34 70.1796 39.34C71.4096 39.28 72.5396 38.74 73.3596 37.83L73.7896 37.35C74.6096 36.44 75.0296 35.26 74.9596 34.03C74.9496 33.77 74.8996 33.51 74.8496 33.26L76.5496 33.04C76.7596 33.75 77.1896 34.38 77.7996 34.83C78.4196 35.29 79.1496 35.53 79.8996 35.53C80.0696 35.53 80.2296 35.52 80.3996 35.49L88.2796 34.36C89.2096 34.23 90.0296 33.74 90.5896 32.99C91.1496 32.24 91.3896 31.31 91.2596 30.39L91.2696 30.42ZM23.8396 29.04C24.2196 28.72 24.6696 28.57 25.1296 28.57C25.6996 28.57 26.2596 28.81 26.6596 29.28L27.2396 29.97C27.5796 30.38 27.7496 30.89 27.6996 31.43C27.6496 31.97 27.4096 32.45 26.9996 32.79L22.0296 36.98C21.1896 37.69 19.9196 37.58 19.2096 36.74L18.6296 36.05C17.9196 35.21 18.0296 33.94 18.8696 33.23L23.8396 29.04ZM42.3796 54.36C41.9696 54.7 41.4596 54.87 40.9196 54.82C40.3896 54.77 39.8996 54.53 39.5596 54.12L38.9796 53.43C38.2696 52.59 38.3796 51.32 39.2196 50.61L44.1896 46.42C44.5696 46.1 45.0196 45.95 45.4796 45.95C46.0496 45.95 46.6196 46.19 47.0096 46.66L47.5896 47.35C47.9296 47.76 48.0996 48.27 48.0496 48.81C48.0096 49.35 47.7596 49.83 47.3496 50.17L42.3796 54.36Z" fill="white"/>
</g>
<defs>
<clipPath id="clip0_563_72">
<rect width="91.3" height="56.33" fill="white"/>
</clipPath>
</defs>
</svg>
