<svg width="66" height="75" viewBox="0 0 66 75" fill="none" xmlns="http://www.w3.org/2000/svg">
<path d="M61.4439 42.6046C61.7711 42.6046 62.0424 42.3326 62.0424 42.0046V25.5628C62.8164 25.4588 63.5506 25.1708 64.1889 24.6907C65.1625 23.9546 65.7929 22.8825 65.9604 21.6744C66.3115 19.1781 64.572 16.8659 62.0823 16.5138C60.4305 16.2818 58.8745 16.9699 57.9009 18.178L37.1936 6.31275C37.3373 5.96071 37.457 5.59267 37.5128 5.20863C37.8639 2.71236 36.1244 0.400115 33.6347 0.0480772C31.1371 -0.30396 28.8389 1.44023 28.4878 3.93649C28.3761 4.75258 28.4958 5.56867 28.807 6.31275L8.17152 18.258C7.46931 17.3379 6.42397 16.6899 5.1951 16.5138C2.70543 16.1618 0.399305 17.906 0.0481983 20.4022C-0.119375 21.6104 0.191833 22.8105 0.925964 23.7866C1.6601 24.7627 2.72937 25.3948 3.93431 25.5628C3.94229 25.5628 3.95825 25.5628 3.96622 25.5628V49.2293C2.091 49.5814 0.574858 51.0935 0.295569 53.0857C0.127995 54.2939 0.439203 55.494 1.17333 56.4701C1.90747 57.4462 2.97674 58.0783 4.18168 58.2463C4.39713 58.2783 4.61258 58.2943 4.82803 58.2943C5.80953 58.2943 6.75912 57.9743 7.56506 57.3742C7.80445 57.1902 8.01991 56.9902 8.2194 56.7741L11.7065 58.7903C11.8023 58.8464 11.906 58.8704 12.0018 58.8704C12.2092 58.8704 12.4087 58.7663 12.5205 58.5663C12.688 58.2783 12.5843 57.9103 12.305 57.7502L8.88171 55.766C9.10514 55.326 9.26474 54.8619 9.33656 54.3579C9.34453 54.2779 9.35251 54.2059 9.36049 54.1259H32.4218V65.9031C31.2169 66.0631 30.1316 66.7032 29.4055 67.6473L14.7388 59.1584C14.4515 58.9904 14.0845 59.0944 13.9249 59.3744C13.7573 59.6624 13.861 60.0305 14.1403 60.1905L28.807 68.6794C28.6634 69.0314 28.5596 69.3995 28.5038 69.7915C28.3362 70.9996 28.6474 72.1998 29.3815 73.1759C30.1157 74.152 31.1849 74.7841 32.3899 74.9521C32.6053 74.9841 32.8208 75.0001 33.0362 75.0001C34.0177 75.0001 34.9673 74.68 35.7733 74.08C36.7468 73.3439 37.3772 72.2718 37.5448 71.0637C37.6644 70.2316 37.5448 69.4155 37.2415 68.6874L57.8211 56.7741C58.5074 57.4942 59.4171 57.9903 60.4704 58.1423C60.6858 58.1743 60.8933 58.1903 61.1088 58.1903C63.3431 58.1903 65.2981 56.5341 65.6173 54.2539C65.7849 53.0457 65.4737 51.8456 64.7395 50.8695C64.0772 49.9894 63.1356 49.4053 62.0663 49.1733V44.7088C62.0663 44.3808 61.795 44.1088 61.4679 44.1088C61.1407 44.1088 60.8694 44.3808 60.8694 44.7088V49.0613C60.3108 49.0853 59.7682 49.2213 59.2734 49.4373L47.9104 29.6992L57.9249 23.8906C58.651 24.8027 59.6724 25.3948 60.8375 25.5628C60.8454 25.5628 60.8614 25.5628 60.8694 25.5628V42.0046C60.8694 42.3326 61.1407 42.6046 61.4679 42.6046H61.4439ZM29.6688 4.10451C29.9082 2.42433 31.3445 1.2002 32.9963 1.2002C33.1479 1.2002 33.3075 1.2082 33.4671 1.2322C35.3025 1.48823 36.5872 3.20041 36.3318 5.04061C36.2042 5.9287 35.7413 6.72079 35.0312 7.26485C34.313 7.80891 33.4272 8.03293 32.5415 7.91292C31.6557 7.7849 30.8658 7.32085 30.3231 6.60078C29.7805 5.8807 29.5571 4.9926 29.6768 4.10451H29.6688ZM56.5683 52.9257H33.5948V41.8925C34.7997 41.7485 35.893 41.1485 36.6351 40.2204L56.8157 51.9896C56.704 52.2857 56.6162 52.5977 56.5683 52.9257ZM7.69274 50.1974L19.1994 30.2113L28.807 35.7719C28.6953 36.0759 28.6075 36.396 28.5596 36.732C28.4319 37.6361 28.5836 38.5242 28.9426 39.2923L8.53859 51.1255C8.2992 50.7815 8.01193 50.4695 7.69274 50.1974ZM7.30173 24.6827C7.63688 24.4347 7.90819 24.1306 8.15556 23.8106L18.1701 29.6032L6.67932 49.5574C6.29629 49.3813 5.87337 49.2533 5.43449 49.1893C5.33873 49.1733 5.25095 49.1733 5.1552 49.1653V25.5628C5.92923 25.4588 6.66336 25.1708 7.30173 24.6907V24.6827ZM29.7486 36.892C29.8763 36.0039 30.3391 35.2118 31.0493 34.6678C31.6398 34.2197 32.342 33.9877 33.0681 33.9877C33.2277 33.9877 33.3873 33.9957 33.5389 34.0197C34.4247 34.1477 35.2147 34.6118 35.7573 35.3318C36.2999 36.0519 36.5234 36.94 36.4037 37.8281C36.1483 39.6683 34.4327 40.9564 32.6133 40.7004C30.778 40.4444 29.4932 38.7322 29.7486 36.892ZM36.7149 34.6118C35.9807 33.6357 34.9115 33.0036 33.7065 32.8356C33.6666 32.8356 33.6347 32.8356 33.5948 32.8356V9.08904C33.906 9.04904 34.2092 8.97703 34.5125 8.87302L46.2506 29.2592L36.7947 34.7398C36.7627 34.6998 36.7468 34.6518 36.7149 34.6118ZM29.3895 7.35286C29.6848 7.7369 30.0359 8.04893 30.4269 8.32096L28.5197 11.6253C28.3522 11.9133 28.4559 12.2814 28.7352 12.4414C28.8309 12.4974 28.9347 12.5214 29.0304 12.5214C29.2379 12.5214 29.4374 12.4174 29.5491 12.2174L31.4722 8.87302C31.7515 8.96903 32.0467 9.04104 32.35 9.08904C32.358 9.08904 32.3739 9.08904 32.3819 9.08904V32.8596C31.6398 32.9716 30.9296 33.2436 30.3152 33.7077C29.9401 33.9877 29.6369 34.3397 29.3656 34.7078L19.782 29.1632L27.7776 15.2817C27.9452 14.9937 27.8415 14.6256 27.5622 14.4656C27.2749 14.2976 26.9078 14.4016 26.7482 14.6816L18.7526 28.5631L8.74606 22.7705C8.88969 22.4185 9.00939 22.0504 9.06525 21.6664C9.18494 20.8343 9.06525 20.0182 8.76202 19.2901L29.3895 7.35286ZM1.87555 23.0665C1.33293 22.3465 1.1095 21.4584 1.22919 20.5703C1.46858 18.8901 2.90493 17.666 4.55672 17.666C4.70834 17.666 4.86793 17.674 5.02752 17.698C6.86285 17.954 8.14758 19.6662 7.88425 21.5064C7.75658 22.3945 7.29376 23.1865 6.58356 23.7306C5.86539 24.2747 4.97965 24.4987 4.0939 24.3787C3.20815 24.2507 2.41817 23.7866 1.87555 23.0665ZM6.82295 56.4141C6.10478 56.9582 5.21904 57.1822 4.33329 57.0622C3.44755 56.9342 2.65756 56.4701 2.11494 55.75C1.57232 55.0299 1.34889 54.1418 1.46858 53.2538C1.69999 51.5736 3.14432 50.3494 4.79611 50.3494C4.94773 50.3494 5.10732 50.3574 5.26691 50.3814C7.10224 50.6375 8.38697 52.3497 8.12364 54.1899C7.99597 55.078 7.53315 55.87 6.82295 56.4141ZM9.28868 52.9257C9.2408 52.6777 9.17696 52.4297 9.09716 52.1976L29.605 40.3084C30.2912 41.1325 31.2727 41.7165 32.4058 41.8845V52.9257H9.28868ZM36.3318 70.9036C36.2042 71.7917 35.7413 72.5838 35.0312 73.1279C34.313 73.6719 33.4272 73.896 32.5415 73.7759C31.6557 73.6479 30.8658 73.1839 30.3231 72.4638C29.7805 71.7437 29.5571 70.8556 29.6768 69.9675C29.9082 68.2874 31.3525 67.0712 32.9963 67.0632C33.1479 67.0632 33.3075 67.0712 33.4592 67.0952C35.2945 67.3513 36.5792 69.0634 36.3239 70.9036H36.3318ZM33.6347 65.9111C33.6347 65.9111 33.6108 65.9111 33.6028 65.9111V54.1339H56.5524C56.6162 54.7339 56.7997 55.302 57.079 55.814L36.6111 67.6633C35.9089 66.7432 34.8636 66.0951 33.6347 65.9191V65.9111ZM63.758 51.5976C64.3007 52.3177 64.5241 53.2058 64.4044 54.0938C64.149 55.934 62.4414 57.2222 60.614 56.9661C58.7787 56.7101 57.494 54.9979 57.7573 53.1577C57.9887 51.4776 59.433 50.2534 61.0848 50.2534C61.2365 50.2534 61.396 50.2614 61.5556 50.2854C62.4414 50.4134 63.2314 50.8775 63.774 51.5976H63.758ZM58.2281 50.0614C57.9169 50.3094 57.6296 50.6055 57.3982 50.9335L37.2495 39.1803C37.4091 38.8122 37.5368 38.4202 37.6006 38.0041C37.7043 37.252 37.6006 36.508 37.3532 35.8199L46.857 30.3073L58.2361 50.0614H58.2281ZM35.5738 8.32896C35.6296 8.28896 35.6855 8.26495 35.7413 8.22495C36.0765 7.97692 36.3478 7.67289 36.5952 7.35286L57.2705 19.2101C57.103 19.5862 56.9833 19.9862 56.9274 20.4102C56.8077 21.2583 56.9434 22.1064 57.2785 22.8745L47.2879 28.6671L35.5817 8.32896H35.5738ZM58.7548 23.0665C58.2121 22.3465 57.9887 21.4584 58.1084 20.5703C58.3478 18.8901 59.7841 17.666 61.4359 17.666C61.5876 17.666 61.7471 17.674 61.9067 17.698C63.7421 17.954 65.0268 19.6662 64.7714 21.5064C64.6438 22.3945 64.181 23.1865 63.4708 23.7306C62.7526 24.2747 61.8668 24.4987 60.9811 24.3787C60.0953 24.2507 59.3054 23.7866 58.7627 23.0665H58.7548Z" fill="white"/>
</svg>
